<svg version="1.1" id="Layer_1" xmlns="http://www.w3.org/2000/svg" xmlns:xlink="http://www.w3.org/1999/xlink" x="0px"
	y="0px" width="40px" height="40px" viewBox="0 0 512 512" enable-background="new 0 0 512 512" xml:space="preserve">
	<path fill="#3D3C6F" opacity="1.000000" stroke="none" d="
M1.000000,271.000000 
	C1.000000,218.979111 1.000000,166.958206 1.376783,114.514046 
	C4.290989,108.803749 6.357345,103.221481 9.452012,98.283699 
	C19.736755,81.873596 34.816105,72.327103 54.131561,72.176567 
	C114.597092,71.705345 175.068634,71.998390 235.537842,72.010368 
	C242.698547,72.011787 249.859238,72.106544 257.014221,72.614075 
	C257.060638,82.148521 257.112701,91.226944 257.114166,100.752419 
	C257.092896,110.463577 257.122253,119.727684 257.096741,129.456406 
	C257.081879,139.018494 257.121887,148.115967 257.112427,157.666382 
	C257.092712,167.408691 257.122498,176.698029 257.096985,186.451935 
	C257.078674,195.974548 257.115662,205.032608 257.098877,214.550873 
	C257.081146,224.328613 257.117157,233.646133 257.098022,243.430130 
	C257.037476,252.893021 257.032074,261.889435 256.567596,270.996216 
	C171.735062,271.120850 87.361595,271.135437 2.988127,271.143127 
	C2.325423,271.143188 1.662710,271.049774 1.000000,271.000000 
M165.179169,240.406372 
	C165.336639,240.293579 165.494095,240.180801 165.651566,240.068008 
	C165.414413,240.078842 165.177246,240.089676 165.436722,239.407227 
	C164.669754,236.713257 163.902771,234.019287 163.084167,231.143951 
	C165.484833,229.255188 167.830902,227.409363 170.176987,225.563538 
	C161.353195,227.302338 159.023346,221.874527 157.286209,214.896423 
	C156.693878,222.964157 152.562286,226.329041 144.102570,225.416321 
	C153.682785,228.524643 151.502228,234.525665 148.479752,241.393021 
	C152.227493,238.792374 154.816040,236.996109 157.349503,235.238083 
	C159.976990,236.863861 162.494690,238.421707 165.179169,240.406372 
M36.692970,183.052948 
	C39.004150,181.485870 41.315331,179.918793 43.726055,178.284225 
	C46.405472,180.128967 48.970913,181.895218 51.536350,183.661484 
	C47.493225,176.682556 49.758152,171.830399 56.264275,167.926575 
	C53.322632,167.926575 50.380993,167.926575 47.320774,167.926575 
	C46.094200,164.621750 44.957134,161.558121 43.820072,158.494476 
	C42.714958,166.030334 38.807186,169.599686 30.453320,168.312134 
	C37.644207,171.495346 38.931347,176.051285 35.813778,182.136200 
	C35.704731,182.349014 35.964806,182.750961 35.619522,182.885086 
	C35.596752,183.144714 35.573982,183.404358 35.551208,183.663986 
	C35.691551,183.432220 35.831890,183.200439 36.692970,183.052948 
M222.083725,183.407242 
	C222.267838,183.346832 222.451950,183.286423 222.636063,183.226028 
	C222.404541,183.175293 222.173004,183.124542 222.254517,182.318115 
	C218.613678,175.871368 221.176132,171.457352 227.680237,167.941086 
	C218.920654,170.160004 215.820007,165.556915 214.618652,157.334320 
	C212.952347,161.776917 211.814590,164.810349 210.572662,168.121521 
	C207.426743,168.121521 204.560028,168.121521 201.693329,168.121521 
	C209.322296,171.628937 209.264023,177.148468 205.176544,184.646591 
	C209.199997,181.846832 211.778229,180.052750 214.153595,178.399826 
	C216.947845,180.019470 219.488373,181.492035 222.083725,183.407242 
M165.037827,126.561897 
	C165.291153,126.525139 165.544479,126.488380 165.797806,126.451622 
	C165.630356,126.197220 165.462906,125.942825 165.276627,124.927788 
	C164.540573,122.412582 163.804504,119.897377 163.053909,117.332489 
	C165.626221,115.344109 168.030136,113.485901 170.434036,111.627693 
	C162.106064,113.048111 158.586334,108.933113 157.880356,99.847839 
	C156.161591,104.602348 155.050873,107.674911 153.786179,111.173355 
	C150.682144,111.173355 147.674942,111.173355 143.756622,111.173355 
	C147.088867,113.684311 149.560898,115.547058 151.907333,117.315178 
	C150.940918,120.452629 150.104843,123.166962 148.914841,127.030342 
	C152.502991,124.728951 155.062271,123.087471 157.451004,121.555374 
	C160.145828,123.191528 162.531631,124.640068 165.037827,126.561897 
M39.624996,237.966049 
	C40.964821,237.044739 42.304642,236.123413 43.684971,235.174240 
	C46.408028,237.027222 48.958038,238.762436 51.508053,240.497665 
	C47.887093,233.583557 49.586830,228.588989 57.739685,225.249664 
	C53.259583,224.738464 49.432259,225.377136 47.351719,223.763550 
	C45.248005,222.132004 44.874203,218.269913 43.742603,215.384933 
	C42.875423,223.334793 38.429314,226.262436 30.279028,225.064301 
	C37.597694,228.599548 39.653164,233.249695 35.814240,240.275574 
	C36.875751,239.653442 37.937267,239.031296 39.624996,237.966049 
M69.859901,151.336121 
	C71.294487,151.279495 72.944923,150.744812 74.115364,151.273270 
	C76.094307,152.166733 77.769638,153.732697 79.572624,155.015900 
	C75.885033,147.650345 78.997276,143.080322 86.524040,139.467178 
	C75.929077,138.910172 75.929077,138.910172 71.668007,129.110260 
	C70.950417,137.840088 66.889496,141.221848 58.361862,139.459839 
	C66.511772,142.880188 67.538200,148.160172 64.485153,155.097549 
	C66.087944,153.997101 67.690735,152.896637 69.859901,151.336121 
M122.786301,148.180130 
	C122.088348,150.327301 121.390396,152.474472 120.692444,154.621643 
	C126.405968,149.421463 131.573532,149.389603 137.271790,155.314926 
	C133.157135,147.894104 135.327225,142.999084 142.618515,139.340439 
	C134.132050,141.400314 130.274155,137.704178 128.806976,129.811386 
	C128.063583,138.555832 123.314568,140.725845 116.112968,139.065002 
	C118.650681,142.152206 120.812691,144.782364 122.786301,148.180130 
M191.680222,139.194504 
	C190.507034,138.108459 189.012054,137.210175 188.241318,135.889282 
	C187.257889,134.203873 186.859512,132.177048 186.208954,130.297379 
	C185.807831,130.206573 185.406708,130.115753 185.005585,130.024933 
	C184.983490,138.581131 180.170990,140.686371 172.044220,139.653992 
	C180.917267,142.590622 180.559250,148.343094 177.963226,155.344055 
	C183.507233,148.702469 188.653336,150.097137 194.039108,155.756546 
	C193.230087,151.489105 191.552017,148.095459 192.405563,145.551086 
	C193.203217,143.173279 196.687332,141.696671 199.758179,139.197464 
	C196.527420,139.197464 194.530640,139.197464 191.680222,139.194504 
M131.406662,193.267181 
	C130.755508,191.315247 130.104355,189.363297 129.453217,187.411362 
	C128.144943,195.496979 123.224419,197.600037 115.441360,196.413727 
	C123.203918,199.813629 124.293800,205.049057 120.869499,212.259735 
	C126.472549,206.088013 131.626923,206.478439 137.304123,212.201950 
	C133.040405,204.720779 135.530869,199.944016 142.436295,196.493591 
	C139.884216,196.089706 137.894989,196.353394 136.018829,196.006149 
	C134.521759,195.729065 133.162460,194.707504 131.406662,193.267181 
M78.441521,211.116211 
	C78.934456,210.645477 79.925613,209.874680 79.848785,209.747101 
	C76.260361,203.788940 79.372719,200.408829 84.348419,197.668655 
	C84.685043,197.483276 84.819008,196.929886 85.786491,195.309509 
	C77.271545,198.326096 73.335014,194.850586 71.751556,187.464294 
	C70.684822,190.321182 69.618088,193.178055 68.440735,196.331177 
	C65.201248,196.331177 62.177723,196.331177 59.154194,196.331177 
	C66.466179,199.814621 67.378387,205.111908 63.923573,212.157761 
	C68.715775,208.484406 72.893051,204.761246 78.441521,211.116211 
M179.094345,206.561783 
	C178.680557,208.221664 178.266785,209.881531 177.852997,211.541412 
	C183.445908,205.893036 188.596863,206.606216 194.255753,212.208359 
	C189.831665,204.682205 192.439346,199.934128 198.738724,196.060349 
	C195.643723,196.060349 192.548706,196.060349 189.377731,196.060349 
	C188.261856,192.940094 187.241653,190.087387 185.862061,186.229736 
	C184.449463,190.292603 183.448242,193.172272 182.342300,196.353149 
	C179.006607,196.353149 175.993546,196.353149 172.021484,196.353149 
	C174.591049,198.286163 176.622665,199.315933 177.901733,200.938828 
	C178.875977,202.174927 178.895142,204.163803 179.094345,206.561783 
M107.271805,125.969872 
	C107.126251,123.103119 106.980698,120.236359 106.807388,116.822998 
	C108.670502,115.408104 111.105835,113.558662 113.541168,111.709221 
	C105.045616,113.444885 102.046265,108.490128 100.321640,101.185425 
	C99.734024,109.654099 95.361740,112.622551 87.681862,111.764954 
	C90.137619,113.621101 92.593376,115.477249 95.007240,117.301735 
	C94.011604,120.601997 93.118874,123.561165 92.018311,127.209229 
	C95.340607,124.985222 98.018013,123.192909 100.747948,121.365433 
	C102.903061,122.927963 104.780594,124.289238 107.271805,125.969872 
M103.141853,179.976929 
	C104.083817,180.659164 105.008041,181.367828 105.973114,182.015625 
	C106.803131,182.572769 107.679771,183.060471 108.535789,183.578873 
	C104.123032,176.455948 107.107155,171.852570 113.965424,167.674683 
	C104.270065,171.013519 102.420151,164.701218 100.257736,158.136459 
	C99.827522,166.568176 95.321854,169.394196 86.266487,167.548309 
	C90.212112,170.563034 92.555099,172.353241 94.999863,174.221207 
	C94.073875,177.219986 93.198959,180.053360 91.956993,184.075409 
	C94.768898,182.195114 96.412781,180.794525 98.303398,179.939575 
	C99.525070,179.387161 101.108063,179.633728 103.141853,179.976929 
M50.973595,115.979309 
	C52.882206,114.558189 54.790821,113.137070 56.699432,111.715950 
	C48.232609,113.206657 44.894718,108.808647 43.553028,101.116264 
	C42.689186,109.342491 38.497906,112.707657 30.117048,111.403275 
	C38.236229,114.574753 38.805801,119.822495 36.270077,126.475502 
	C38.691772,124.821182 41.113472,123.166862 43.646309,121.436623 
	C46.304512,123.202805 48.896954,124.925293 51.379066,126.574471 
	C50.998257,122.961182 50.653694,119.691818 50.973595,115.979309 
M206.540878,124.521248 
	C206.389038,125.138359 206.237198,125.755478 205.890274,127.165489 
	C209.139526,124.966774 211.775482,123.183067 214.390991,121.413208 
	C217.016251,123.193642 219.401428,124.811264 222.770920,127.096428 
	C221.621811,123.107666 220.818649,120.319702 219.960510,117.340950 
	C222.432678,115.432587 224.858505,113.560013 227.284317,111.687439 
	C219.413071,112.870056 215.394760,109.343834 214.037216,101.839127 
	C212.991333,104.776703 211.945450,107.714272 210.755844,111.055481 
	C207.703888,111.055481 204.679184,111.055481 200.120285,111.055481 
	C205.868942,114.586166 210.761108,117.355133 206.540878,124.521248 
M144.825714,168.774399 
	C151.658813,172.042130 152.908127,177.031937 149.499695,183.703995 
	C152.177490,181.896164 154.855270,180.088318 157.487030,178.311554 
	C159.992203,179.982132 162.287430,181.512726 165.605972,183.725693 
	C164.588821,179.797577 163.865753,177.005219 163.125763,174.147476 
	C165.633606,172.231689 168.016159,170.411621 170.398712,168.591537 
	C161.723984,170.362793 159.009323,165.226685 157.709366,157.830261 
	C153.502304,167.503479 153.502304,167.503479 144.825714,168.774399 
M102.449371,220.160477 
	C101.873009,218.604782 101.296638,217.049072 100.720276,215.493378 
	C99.584328,222.969833 95.825867,226.542068 88.022408,225.699036 
	C90.407631,227.571533 92.792854,229.444031 95.012283,231.186386 
	C94.004066,234.414612 93.158867,237.120865 91.912102,241.112885 
	C95.538940,238.611771 98.055336,236.876434 100.572601,235.140503 
	C103.366005,237.065582 105.928871,238.831787 108.491745,240.598007 
	C105.189316,233.883987 106.049934,228.621552 113.717308,225.179916 
	C111.360535,224.731186 109.567520,224.539047 107.832024,224.773193 
	C104.708183,225.194656 103.126213,223.895157 102.449371,220.160477 
M211.786819,222.295074 
	C209.715683,227.438492 204.801254,223.026489 201.291306,225.688599 
	C208.382690,228.533478 210.202957,233.311539 205.169952,240.266159 
	C205.690384,240.258133 206.210815,240.250107 206.731232,240.242065 
	C209.312836,238.567200 211.894424,236.892334 214.460785,235.227341 
	C216.901566,236.880280 219.215378,238.447250 221.529190,240.014221 
	C218.629974,233.292389 220.802917,228.533020 227.432587,224.838531 
	C218.405548,227.222473 215.881317,222.088608 214.582809,213.922577 
	C213.363800,217.497925 212.675903,219.515503 211.786819,222.295074 
z" />
	<path fill="#EDECEC" opacity="1.000000" stroke="none" d="
M513.000000,328.000000 
	C513.000000,337.354218 513.000000,346.708466 512.537231,356.450714 
	C342.710663,356.827393 173.346924,356.815704 3.983187,356.812775 
	C2.988793,356.812775 1.994397,356.934906 1.000001,357.000000 
	C1.000000,347.645782 1.000000,338.291534 1.468657,328.467957 
	C172.291550,327.999084 342.645782,327.999542 513.000000,328.000000 
z" />
	<path fill="#EDECEC" opacity="1.000000" stroke="none" d="
M1.000000,271.468658 
	C1.662710,271.049774 2.325423,271.143188 2.988127,271.143127 
	C87.361595,271.135437 171.735062,271.120850 257.030914,271.053345 
	C342.968872,271.000092 427.984436,271.000031 513.000000,271.000000 
	C513.000000,280.354218 513.000000,289.708466 512.532227,299.501038 
	C342.708069,299.935638 173.351761,299.931763 3.995443,299.931122 
	C2.996962,299.931091 1.998481,299.976044 1.000000,300.000000 
	C1.000000,290.645782 1.000000,281.291534 1.000000,271.468658 
z" />
	<path fill="#EDEBEC" opacity="1.000000" stroke="none" d="
M513.000000,399.533875 
	C512.348083,400.309479 511.324829,400.453979 511.102509,400.954346 
	C509.223083,405.184570 507.489899,409.479797 504.932617,413.774628 
	C503.320221,413.769287 502.487946,413.723358 501.655640,413.723328 
	C338.900360,413.719543 176.145081,413.718079 13.389812,413.733521 
	C11.906123,413.733673 10.422457,413.961212 8.938780,414.082581 
	C6.502651,409.188568 4.066522,404.294586 1.315196,399.700317 
	C1.000000,395.310760 1.000000,390.621490 1.468651,385.463440 
	C172.291534,384.996399 342.645752,384.998199 513.000000,385.000000 
	C513.000000,389.689240 513.000000,394.378510 513.000000,399.533875 
z" />
	<path fill="#B22334" opacity="1.000000" stroke="none" d="
M513.000000,384.531342 
	C342.645752,384.998199 172.291534,384.996399 1.468651,384.997314 
	C1.000000,375.979095 1.000000,366.958221 1.000001,357.468689 
	C1.994397,356.934906 2.988793,356.812775 3.983187,356.812775 
	C173.346924,356.815704 342.710663,356.827393 512.537231,356.919373 
	C513.000000,366.020905 513.000000,375.041779 513.000000,384.531342 
z" />
	<path fill="#B22334" opacity="1.000000" stroke="none" d="
M1.000000,300.468628 
	C1.998481,299.976044 2.996962,299.931091 3.995443,299.931122 
	C173.351761,299.931763 342.708069,299.935638 512.532227,299.969666 
	C513.000000,309.020905 513.000000,318.041779 513.000000,327.531342 
	C342.645782,327.999542 172.291550,327.999084 1.468657,327.999329 
	C1.000000,318.979095 1.000000,309.958221 1.000000,300.468628 
z" />
	<path fill="#EDECEC" opacity="1.000000" stroke="none" d="
M257.152283,185.987381 
	C257.122498,176.698029 257.092712,167.408691 257.568848,157.660416 
	C341.055145,157.199646 424.035492,157.199173 507.015839,157.187775 
	C509.010559,157.187500 511.005280,157.065323 513.000000,157.000000 
	C513.000000,166.354233 513.000000,175.708450 512.531372,185.532043 
	C427.092560,185.996735 342.122406,185.992065 257.152283,185.987381 
z" />
	<path fill="#EEEDED" opacity="1.000000" stroke="none" d="
M257.153168,242.963654 
	C257.117157,233.646133 257.081146,224.328613 257.555298,214.544312 
	C267.063263,214.076233 276.061005,214.076279 285.058777,214.073410 
	C361.039185,214.049240 437.019592,214.024536 513.000000,214.000000 
	C513.000000,223.354233 513.000000,232.708450 512.531372,242.522064 
	C427.092926,242.975525 342.123047,242.969589 257.153168,242.963654 
z" />
	<path fill="#EDEBEC" opacity="1.000000" stroke="none" d="
M505.062378,99.921280 
	C507.497040,104.814240 509.931671,109.707191 512.683167,114.300064 
	C513.000000,118.689255 513.000000,123.378510 512.531372,128.536484 
	C427.092316,129.000732 342.121979,128.996262 257.151611,128.991791 
	C257.122253,119.727684 257.092896,110.463577 257.570801,100.744827 
	C338.258881,100.287498 418.439667,100.287605 498.620453,100.267014 
	C500.767792,100.266464 502.915070,100.041565 505.062378,99.921280 
z" />
	<path fill="#B22334" opacity="1.000000" stroke="none" d="
M257.098022,243.430130 
	C342.123047,242.969589 427.092926,242.975525 512.531372,242.990723 
	C513.000000,252.020889 513.000000,261.041779 513.000000,270.531342 
	C427.984436,271.000031 342.968872,271.000092 257.489990,270.942993 
	C257.032074,261.889435 257.037476,252.893021 257.098022,243.430130 
z" />
	<path fill="#B22334" opacity="1.000000" stroke="none" d="
M257.096741,129.456406 
	C342.121979,128.996262 427.092316,129.000732 512.531372,129.002594 
	C513.000000,138.020889 513.000000,147.041794 513.000000,156.531342 
	C511.005280,157.065323 509.010559,157.187500 507.015839,157.187775 
	C424.035492,157.199173 341.055145,157.199646 257.618347,157.207458 
	C257.121887,148.115967 257.081879,139.018494 257.096741,129.456406 
z" />
	<path fill="#B22334" opacity="1.000000" stroke="none" d="
M513.000000,213.531342 
	C437.019592,214.024536 361.039185,214.049240 285.058777,214.073410 
	C276.061005,214.076279 267.063263,214.076233 257.609070,214.084106 
	C257.115662,205.032608 257.078674,195.974548 257.096985,186.451935 
	C342.122406,185.992065 427.092560,185.996735 512.531372,186.000702 
	C513.000000,195.020889 513.000000,204.041794 513.000000,213.531342 
z" />
	<path fill="#B22334" opacity="1.000000" stroke="none" d="
M505.030884,99.567566 
	C502.915070,100.041565 500.767792,100.266464 498.620453,100.267014 
	C418.439667,100.287605 338.258881,100.287498 257.621460,100.297775 
	C257.112701,91.226944 257.060638,82.148521 257.014221,72.614075 
	C262.509796,72.105362 267.999634,72.007820 273.489502,72.006866 
	C335.740021,71.996040 397.990692,71.939423 460.240997,72.053658 
	C471.988739,72.075211 482.506012,76.419586 491.287445,84.018639 
	C496.407288,88.449081 500.464203,94.107788 505.030884,99.567566 
z" />
	<path fill="#F7F7F9" opacity="1.000000" stroke="none" d="
M39.311890,238.187607 
	C37.937267,239.031296 36.875751,239.653442 35.814240,240.275574 
	C39.653164,233.249695 37.597694,228.599548 30.279028,225.064301 
	C38.429314,226.262436 42.875423,223.334793 43.742603,215.384933 
	C44.874203,218.269913 45.248005,222.132004 47.351719,223.763550 
	C49.432259,225.377136 53.259583,224.738464 57.739685,225.249664 
	C49.586830,228.588989 47.887093,233.583557 51.508053,240.497665 
	C48.958038,238.762436 46.408028,237.027222 43.684971,235.174240 
	C42.304642,236.123413 40.964821,237.044739 39.311890,238.187607 
z" />
	<path fill="#F2F2F5" opacity="1.000000" stroke="none" d="
M69.576721,151.566162 
	C67.690735,152.896637 66.087944,153.997101 64.485153,155.097549 
	C67.538200,148.160172 66.511772,142.880188 58.361862,139.459839 
	C66.889496,141.221848 70.950417,137.840088 71.668007,129.110260 
	C75.929077,138.910172 75.929077,138.910172 86.524040,139.467178 
	C78.997276,143.080322 75.885033,147.650345 79.572624,155.015900 
	C77.769638,153.732697 76.094307,152.166733 74.115364,151.273270 
	C72.944923,150.744812 71.294487,151.279495 69.576721,151.566162 
z" />
	<path fill="#F4F4F7" opacity="1.000000" stroke="none" d="
M122.880501,147.796326 
	C120.812691,144.782364 118.650681,142.152206 116.112968,139.065002 
	C123.314568,140.725845 128.063583,138.555832 128.806976,129.811386 
	C130.274155,137.704178 134.132050,141.400314 142.618515,139.340439 
	C135.327225,142.999084 133.157135,147.894104 137.271790,155.314926 
	C131.573532,149.389603 126.405968,149.421463 120.692444,154.621643 
	C121.390396,152.474472 122.088348,150.327301 122.880501,147.796326 
z" />
	<path fill="#F2F2F5" opacity="1.000000" stroke="none" d="
M192.107025,139.195984 
	C194.530640,139.197464 196.527420,139.197464 199.758179,139.197464 
	C196.687332,141.696671 193.203217,143.173279 192.405563,145.551086 
	C191.552017,148.095459 193.230087,151.489105 194.039108,155.756546 
	C188.653336,150.097137 183.507233,148.702469 177.963226,155.344055 
	C180.559250,148.343094 180.917267,142.590622 172.044220,139.653992 
	C180.170990,140.686371 184.983490,138.581131 185.005585,130.024933 
	C185.406708,130.115753 185.807831,130.206573 186.208954,130.297379 
	C186.859512,132.177048 187.257889,134.203873 188.241318,135.889282 
	C189.012054,137.210175 190.507034,138.108459 192.107025,139.195984 
z" />
	<path fill="#F3F3F6" opacity="1.000000" stroke="none" d="
M131.574341,193.641785 
	C133.162460,194.707504 134.521759,195.729065 136.018829,196.006149 
	C137.894989,196.353394 139.884216,196.089706 142.436295,196.493591 
	C135.530869,199.944016 133.040405,204.720779 137.304123,212.201950 
	C131.626923,206.478439 126.472549,206.088013 120.869499,212.259735 
	C124.293800,205.049057 123.203918,199.813629 115.441360,196.413727 
	C123.224419,197.600037 128.144943,195.496979 129.453217,187.411362 
	C130.104355,189.363297 130.755508,191.315247 131.574341,193.641785 
z" />
	<path fill="#F4F4F7" opacity="1.000000" stroke="none" d="
M78.128540,210.920120 
	C72.893051,204.761246 68.715775,208.484406 63.923573,212.157761 
	C67.378387,205.111908 66.466179,199.814621 59.154194,196.331177 
	C62.177723,196.331177 65.201248,196.331177 68.440735,196.331177 
	C69.618088,193.178055 70.684822,190.321182 71.751556,187.464294 
	C73.335014,194.850586 77.271545,198.326096 85.786491,195.309509 
	C84.819008,196.929886 84.685043,197.483276 84.348419,197.668655 
	C79.372719,200.408829 76.260361,203.788940 79.848785,209.747101 
	C79.925613,209.874680 78.934456,210.645477 78.128540,210.920120 
z" />
	<path fill="#F4F4F7" opacity="1.000000" stroke="none" d="
M179.216782,206.189774 
	C178.895142,204.163803 178.875977,202.174927 177.901733,200.938828 
	C176.622665,199.315933 174.591049,198.286163 172.021484,196.353149 
	C175.993546,196.353149 179.006607,196.353149 182.342300,196.353149 
	C183.448242,193.172272 184.449463,190.292603 185.862061,186.229736 
	C187.241653,190.087387 188.261856,192.940094 189.377731,196.060349 
	C192.548706,196.060349 195.643723,196.060349 198.738724,196.060349 
	C192.439346,199.934128 189.831665,204.682205 194.255753,212.208359 
	C188.596863,206.606216 183.445908,205.893036 177.852997,211.541412 
	C178.266785,209.881531 178.680557,208.221664 179.216782,206.189774 
z" />
	<path fill="#F7F7F9" opacity="1.000000" stroke="none" d="
M106.964966,125.810196 
	C104.780594,124.289238 102.903061,122.927963 100.747948,121.365433 
	C98.018013,123.192909 95.340607,124.985222 92.018311,127.209229 
	C93.118874,123.561165 94.011604,120.601997 95.007240,117.301735 
	C92.593376,115.477249 90.137619,113.621101 87.681862,111.764954 
	C95.361740,112.622551 99.734024,109.654099 100.321640,101.185425 
	C102.046265,108.490128 105.045616,113.444885 113.541168,111.709221 
	C111.105835,113.558662 108.670502,115.408104 106.807388,116.822998 
	C106.980698,120.236359 107.126251,123.103119 106.964966,125.810196 
z" />
	<path fill="#F7F7F9" opacity="1.000000" stroke="none" d="
M102.835495,179.749573 
	C101.108063,179.633728 99.525070,179.387161 98.303398,179.939575 
	C96.412781,180.794525 94.768898,182.195114 91.956993,184.075409 
	C93.198959,180.053360 94.073875,177.219986 94.999863,174.221207 
	C92.555099,172.353241 90.212112,170.563034 86.266487,167.548309 
	C95.321854,169.394196 99.827522,166.568176 100.257736,158.136459 
	C102.420151,164.701218 104.270065,171.013519 113.965424,167.674683 
	C107.107155,171.852570 104.123032,176.455948 108.535789,183.578873 
	C107.679771,183.060471 106.803131,182.572769 105.973114,182.015625 
	C105.008041,181.367828 104.083817,180.659164 102.835495,179.749573 
z" />
	<path fill="#F7F7F9" opacity="1.000000" stroke="none" d="
M50.641365,116.200882 
	C50.653694,119.691818 50.998257,122.961182 51.379066,126.574471 
	C48.896954,124.925293 46.304512,123.202805 43.646309,121.436623 
	C41.113472,123.166862 38.691772,124.821182 36.270077,126.475502 
	C38.805801,119.822495 38.236229,114.574753 30.117048,111.403275 
	C38.497906,112.707657 42.689186,109.342491 43.553028,101.116264 
	C44.894718,108.808647 48.232609,113.206657 56.699432,111.715950 
	C54.790821,113.137070 52.882206,114.558189 50.641365,116.200882 
z" />
	<path fill="#F7F7F9" opacity="1.000000" stroke="none" d="
M206.678635,124.167450 
	C210.761108,117.355133 205.868942,114.586166 200.120285,111.055481 
	C204.679184,111.055481 207.703888,111.055481 210.755844,111.055481 
	C211.945450,107.714272 212.991333,104.776703 214.037216,101.839127 
	C215.394760,109.343834 219.413071,112.870056 227.284317,111.687439 
	C224.858505,113.560013 222.432678,115.432587 219.960510,117.340950 
	C220.818649,120.319702 221.621811,123.107666 222.770920,127.096428 
	C219.401428,124.811264 217.016251,123.193642 214.390991,121.413208 
	C211.775482,123.183067 209.139526,124.966774 205.890274,127.165489 
	C206.237198,125.755478 206.389038,125.138359 206.678635,124.167450 
z" />
	<path fill="#F7F7F9" opacity="1.000000" stroke="none" d="
M164.917450,126.088608 
	C162.531631,124.640068 160.145828,123.191528 157.451004,121.555374 
	C155.062271,123.087471 152.502991,124.728951 148.914841,127.030342 
	C150.104843,123.166962 150.940918,120.452629 151.907333,117.315178 
	C149.560898,115.547058 147.088867,113.684311 143.756622,111.173355 
	C147.674942,111.173355 150.682144,111.173355 153.786179,111.173355 
	C155.050873,107.674911 156.161591,104.602348 157.880356,99.847839 
	C158.586334,108.933113 162.106064,113.048111 170.434036,111.627693 
	C168.030136,113.485901 165.626221,115.344109 163.053909,117.332489 
	C163.804504,119.897377 164.540573,122.412582 165.191742,125.408356 
	C165.106873,125.888916 164.917450,126.088608 164.917450,126.088608 
z" />
	<path fill="#F8F8F9" opacity="1.000000" stroke="none" d="
M144.917267,168.425690 
	C153.502304,167.503479 153.502304,167.503479 157.709366,157.830261 
	C159.009323,165.226685 161.723984,170.362793 170.398712,168.591537 
	C168.016159,170.411621 165.633606,172.231689 163.125763,174.147476 
	C163.865753,177.005219 164.588821,179.797577 165.605972,183.725693 
	C162.287430,181.512726 159.992203,179.982132 157.487030,178.311554 
	C154.855270,180.088318 152.177490,181.896164 149.499695,183.703995 
	C152.908127,177.031937 151.658813,172.042130 144.917267,168.425690 
z" />
	<path fill="#F7F7F9" opacity="1.000000" stroke="none" d="
M102.606796,220.515442 
	C103.126213,223.895157 104.708183,225.194656 107.832024,224.773193 
	C109.567520,224.539047 111.360535,224.731186 113.717308,225.179916 
	C106.049934,228.621552 105.189316,233.883987 108.491745,240.598007 
	C105.928871,238.831787 103.366005,237.065582 100.572601,235.140503 
	C98.055336,236.876434 95.538940,238.611771 91.912102,241.112885 
	C93.158867,237.120865 94.004066,234.414612 95.012283,231.186386 
	C92.792854,229.444031 90.407631,227.571533 88.022408,225.699036 
	C95.825867,226.542068 99.584328,222.969833 100.720276,215.493378 
	C101.296638,217.049072 101.873009,218.604782 102.606796,220.515442 
z" />
	<path fill="#F6F6F9" opacity="1.000000" stroke="none" d="
M222.028900,182.964600 
	C219.488373,181.492035 216.947845,180.019470 214.153595,178.399826 
	C211.778229,180.052750 209.199997,181.846832 205.176544,184.646591 
	C209.264023,177.148468 209.322296,171.628937 201.693329,168.121521 
	C204.560028,168.121521 207.426743,168.121521 210.572662,168.121521 
	C211.814590,164.810349 212.952347,161.776917 214.618652,157.334320 
	C215.820007,165.556915 218.920654,170.160004 227.680237,167.941086 
	C221.176132,171.457352 218.613678,175.871368 222.119232,182.668152 
	C221.983948,183.018204 222.028900,182.964600 222.028900,182.964600 
z" />
	<path fill="#F7F7F9" opacity="1.000000" stroke="none" d="
M211.887421,221.914093 
	C212.675903,219.515503 213.363800,217.497925 214.582809,213.922577 
	C215.881317,222.088608 218.405548,227.222473 227.432587,224.838531 
	C220.802917,228.533020 218.629974,233.292389 221.529190,240.014221 
	C219.215378,238.447250 216.901566,236.880280 214.460785,235.227341 
	C211.894424,236.892334 209.312836,238.567200 206.731232,240.242065 
	C206.210815,240.250107 205.690384,240.258133 205.169952,240.266159 
	C210.202957,233.311539 208.382690,228.533478 201.291306,225.688599 
	C204.801254,223.026489 209.715683,227.438492 211.887421,221.914093 
z" />
	<path fill="#F6F6F9" opacity="1.000000" stroke="none" d="
M36.052841,183.064758 
	C35.964806,182.750961 35.704731,182.349014 35.813778,182.136200 
	C38.931347,176.051285 37.644207,171.495346 30.453320,168.312134 
	C38.807186,169.599686 42.714958,166.030334 43.820072,158.494476 
	C44.957134,161.558121 46.094200,164.621750 47.320774,167.926575 
	C50.380993,167.926575 53.322632,167.926575 56.264275,167.926575 
	C49.758152,171.830399 47.493225,176.682556 51.536350,183.661484 
	C48.970913,181.895218 46.405472,180.128967 43.726055,178.284225 
	C41.315331,179.918793 39.004150,181.485870 36.353310,183.034363 
	C36.013653,183.015778 36.052841,183.064758 36.052841,183.064758 
z" />
	<path fill="#F7F7F9" opacity="1.000000" stroke="none" d="
M165.012390,239.979553 
	C162.494690,238.421707 159.976990,236.863861 157.349503,235.238083 
	C154.816040,236.996109 152.227493,238.792374 148.479752,241.393021 
	C151.502228,234.525665 153.682785,228.524643 144.102570,225.416321 
	C152.562286,226.329041 156.693878,222.964157 157.286209,214.896423 
	C159.023346,221.874527 161.353195,227.302338 170.176987,225.563538 
	C167.830902,227.409363 165.484833,229.255188 163.084167,231.143951 
	C163.902771,234.019287 164.669754,236.713257 165.205048,239.722778 
	C164.973373,240.038315 165.012390,239.979553 165.012390,239.979553 
z" />
	<path fill="#F7F7F9" opacity="1.000000" stroke="none" d="
M165.201172,125.788673 
	C165.462906,125.942825 165.630356,126.197220 165.797806,126.451622 
	C165.544479,126.488380 165.291153,126.525139 164.977631,126.325256 
	C164.917450,126.088608 165.106873,125.888916 165.201172,125.788673 
z" />
	<path fill="#F7F7F9" opacity="1.000000" stroke="none" d="
M164.956726,240.069412 
	C165.177246,240.089676 165.414413,240.078842 165.651566,240.068008 
	C165.494095,240.180801 165.336639,240.293579 165.095779,240.192963 
	C165.012390,239.979553 164.973373,240.038315 164.956726,240.069412 
z" />
	<path fill="#F6F6F9" opacity="1.000000" stroke="none" d="
M221.962708,183.046005 
	C222.173004,183.124542 222.404541,183.175293 222.636063,183.226013 
	C222.451950,183.286423 222.267838,183.346832 222.056305,183.185913 
	C222.028900,182.964600 221.983948,183.018204 221.962708,183.046005 
z" />
	<path fill="#F6F6F9" opacity="1.000000" stroke="none" d="
M35.992943,182.992218 
	C35.831890,183.200439 35.691551,183.432220 35.551208,183.663986 
	C35.573982,183.404358 35.596752,183.144714 35.836182,182.974915 
	C36.052841,183.064758 36.013653,183.015778 35.992943,182.992218 
z" />
	<path fill="#B22334" opacity="1.000000" stroke="none" d="
M8.980921,414.431549 
	C10.422457,413.961212 11.906123,413.733673 13.389812,413.733521 
	C176.145081,413.718079 338.900360,413.719543 501.655640,413.723328 
	C502.487946,413.723358 503.320221,413.769287 504.606628,413.937622 
	C498.685486,426.385345 488.377838,434.264679 475.671295,438.799133 
	C470.064026,440.800171 463.811005,441.864044 457.849304,441.871460 
	C323.233521,442.038757 188.617462,442.025146 54.001518,441.956726 
	C42.019573,441.950623 31.395479,437.405457 22.450153,429.717102 
	C17.414839,425.389343 13.463003,419.800995 8.980921,414.431549 
z" />
</svg>