<svg version="1.1" id="Layer_1" xmlns="http://www.w3.org/2000/svg" xmlns:xlink="http://www.w3.org/1999/xlink" x="0px"
	y="0px" width="40px" height="40px" viewBox="0 0 512 512" enable-background="new 0 0 512 512" xml:space="preserve">
	<path fill="#20478B" opacity="1.000000" stroke="none" d="
M513.000000,314.000000 
	C513.000000,342.354218 513.000000,370.708466 512.619507,399.461823 
	C509.631317,405.292572 507.529510,411.045441 504.322174,416.096283 
	C494.186462,432.057800 479.432251,441.767151 460.547089,441.815247 
	C324.930603,442.160461 189.312881,442.000763 53.695541,441.990997 
	C52.036125,441.990875 50.334763,442.067902 48.723629,441.750427 
	C26.346600,437.340698 10.872846,424.856812 3.416957,402.964935 
	C3.031602,401.833466 1.824510,400.981903 0.999999,400.000000 
	C1.000000,371.645782 1.000000,343.291534 1.259649,314.448364 
	C1.681826,313.898315 1.844356,313.837219 2.471067,313.833862 
	C171.621368,313.898956 340.307495,313.906586 508.993622,313.908051 
	C509.990295,313.908051 510.986969,313.821991 512.229858,313.867767 
	C512.650818,313.972931 512.825439,313.986481 513.000000,314.000000 
z" />
	<path fill="#AE1F28" opacity="1.000000" stroke="none" d="
M1.000000,200.000000 
	C1.000000,171.645767 1.000000,143.291550 1.378893,114.580475 
	C4.440391,108.668610 6.612595,102.788940 9.900877,97.619156 
	C19.942764,81.831482 34.625275,72.247581 53.251774,72.197395 
	C189.172287,71.831238 325.094238,71.980515 461.015717,72.047371 
	C469.577576,72.051582 477.415955,75.105537 484.809814,79.278938 
	C497.765869,86.591919 506.269226,97.487450 510.881104,111.562576 
	C511.189972,112.505280 512.275635,113.193443 513.000000,114.000000 
	C513.000000,142.354233 513.000000,170.708450 512.739990,199.550659 
	C512.317444,200.100220 512.154846,200.161804 511.528259,200.164963 
	C342.378571,200.099518 173.692978,200.092255 5.007386,200.091156 
	C4.010766,200.091156 3.014145,200.177399 1.771163,200.130981 
	C1.349868,200.025742 1.174934,200.012863 1.000000,200.000000 
z" />
	<path fill="#EEEEEE" opacity="1.000000" stroke="none" d="
M2.017524,200.223358 
	C3.014145,200.177399 4.010766,200.091156 5.007386,200.091156 
	C173.692978,200.092255 342.378571,200.099518 511.664001,200.334198 
	C512.462830,200.785843 512.708191,200.931900 513.000000,201.000000 
	C513.000000,238.021439 513.000000,275.042877 512.797668,312.612854 
	C512.351807,313.326874 512.147888,313.531769 511.983643,313.776123 
	C510.986969,313.821991 509.990295,313.908051 508.993622,313.908051 
	C340.307495,313.906586 171.621368,313.898956 2.334980,313.665161 
	C1.536687,313.213989 1.291784,313.067749 1.000000,313.000000 
	C1.000000,275.978577 1.000000,238.957138 1.202555,201.387070 
	C1.650015,200.674011 1.854153,200.468994 2.017524,200.223358 
z" />
	<path fill="#E5D0D1" opacity="1.000000" stroke="none" d="
M1.771164,200.130997 
	C1.854153,200.468994 1.650015,200.674011 1.202555,200.919220 
	C1.000000,201.000000 1.000000,200.500000 1.000000,200.250000 
	C1.174934,200.012863 1.349868,200.025742 1.771164,200.130997 
z" />
	<path fill="#E5D0D1" opacity="1.000000" stroke="none" d="
M513.000000,200.750000 
	C512.708191,200.931900 512.462830,200.785843 512.128052,200.392609 
	C512.154846,200.161804 512.317444,200.100220 512.739990,200.019318 
	C513.000000,200.000000 513.000000,200.500000 513.000000,200.750000 
z" />
	<path fill="#D0D5E0" opacity="1.000000" stroke="none" d="
M1.000000,313.250000 
	C1.291784,313.067749 1.536687,313.213989 1.870798,313.607422 
	C1.844356,313.837219 1.681826,313.898315 1.259649,313.979675 
	C1.000000,314.000000 1.000000,313.500000 1.000000,313.250000 
z" />
	<path fill="#D0D5E0" opacity="1.000000" stroke="none" d="
M512.229858,313.867737 
	C512.147888,313.531769 512.351807,313.326874 512.797668,313.080688 
	C513.000000,313.000000 513.000000,313.500000 513.000000,313.750000 
	C512.825439,313.986481 512.650818,313.972931 512.229858,313.867737 
z" />
</svg>